{
  "source": "C:\\Users\\Peter\\Desktop\\stuff\\MIUN\\quantitative_research\\video_compression\\videos\\BVI-HD\\BVI-HD_CDVL_videos\\ORIG\\DiverFishAndRock_1920x1080_30fps.mp4",
  "output": "C:\\Users\\Peter\\Desktop\\stuff\\MIUN\\quantitative_research\\video_compression\\compressed_videos\\BVI-HD\\vp9\\2\\DiverFishAndRock_1920x1080_30fps_vp9.webm",
  "codec": "vp9",
  "ok": "Input #0, mov,mp4,m4a,3gp,3g2,mj2, from 'C:\\Users\\Peter\\Desktop\\stuff\\MIUN\\quantitative_research\\video_compression\\videos\\BVI-HD\\BVI-HD_CDVL_videos\\ORIG\\DiverFishAndRock_1920x1080_30fps.mp4':\n  Metadata:\n    major_brand     : isom\n    minor_version   : 512\n    compatible_brands: isomiso2avc1mp41\n    encoder         : Lavf54.28.101\n  Duration: 00:00:05.00, start: 0.000000, bitrate: 228854 kb/s\n  Stream #0:0[0x1](und): Video: h264 (High 4:4:4 Predictive) (avc1 / 0x31637661), yuv420p(progressive), 1920x1080, 228851 kb/s, 30 fps, 30 tbr, 30 tbn (default)\n    Metadata:\n      handler_name    : VideoHandler\n      vendor_id       : [0][0][0][0]\n[out#0/webm @ 00000225ca4e0bc0] Codec AVOption b:a (set bitrate (in bits/s)) has not been used for any stream. The most likely reason is either wrong type (e.g. a video option with no video streams) or that it is a private option of some decoder which was not actually used for any stream.\nStream mapping:\n  Stream #0:0 -> #0:0 (h264 (native) -> vp9 (libvpx-vp9))\nPress [q] to stop, [?] for help\n[libvpx-vp9 @ 00000225ca4dc2c0] v1.15.2-100-g40561f514\nOutput #0, webm, to 'C:\\Users\\Peter\\Desktop\\stuff\\MIUN\\quantitative_research\\video_compression\\compressed_videos\\BVI-HD\\vp9\\2\\DiverFishAndRock_1920x1080_30fps_vp9.webm':\n  Metadata:\n    major_brand     : isom\n    minor_version   : 512\n    compatible_brands: isomiso2avc1mp41\n    encoder         : Lavf62.3.100\n  Stream #0:0(und): Video: vp9, yuv420p(tv, progressive), 1920x1080, q=2-31, 2000 kb/s, 30 fps, 1k tbn (default)\n    Metadata:\n      encoder         : Lavc62.11.100 libvpx-vp9\n      handler_name    : VideoHandler\n      vendor_id       : [0][0][0][0]\n    Side data:\n      cpb: bitrate max/min/avg: 0/0/0 buffer size: 2000000 vbv_delay: N/A\nframe=    0 fps=0.0 q=0.0 size=       0KiB time=N/A bitrate=N/A speed=N/A elapsed=0:00:00.52    \nframe=    7 fps=6.2 q=52.0 size=       1KiB time=00:00:00.23 bitrate=  21.7kbits/s speed=0.205x elapsed=0:00:01.13    \nframe=   12 fps=7.2 q=50.0 size=       1KiB time=00:00:00.40 bitrate=  12.7kbits/s speed=0.239x elapsed=0:00:01.67    \nframe=   18 fps=8.2 q=48.0 size=       1KiB time=00:00:00.60 bitrate=   8.5kbits/s speed=0.272x elapsed=0:00:02.20    \nframe=   23 fps=8.4 q=47.0 size=       1KiB time=00:00:00.76 bitrate=   6.6kbits/s speed=0.279x elapsed=0:00:02.74    \nframe=   29 fps=8.9 q=48.0 size=       1KiB time=00:00:00.93 bitrate=   5.4kbits/s speed=0.286x elapsed=0:00:03.26    \nframe=   33 fps=8.7 q=48.0 size=       1KiB time=00:00:01.10 bitrate=   4.6kbits/s speed=0.29x elapsed=0:00:03.79    \nframe=   39 fps=9.0 q=48.0 size=       1KiB time=00:00:01.30 bitrate=   3.9kbits/s speed=0.302x elapsed=0:00:04.31    \nframe=   44 fps=9.1 q=45.0 size=       1KiB time=00:00:01.46 bitrate=   3.5kbits/s speed=0.302x elapsed=0:00:04.86    \nframe=   49 fps=9.1 q=45.0 size=       1KiB time=00:00:01.63 bitrate=   3.1kbits/s speed=0.303x elapsed=0:00:05.39    \nframe=   53 fps=9.0 q=46.0 size=       1KiB time=00:00:01.76 bitrate=   2.9kbits/s speed=0.299x elapsed=0:00:05.91    \nframe=   59 fps=9.2 q=45.0 size=       1KiB time=00:00:01.96 bitrate=   2.6kbits/s speed=0.305x elapsed=0:00:06.43    \nframe=   63 fps=9.0 q=44.0 size=       1KiB time=00:00:02.10 bitrate=   2.4kbits/s speed=0.301x elapsed=0:00:06.97    \nframe=   68 fps=9.1 q=44.0 size=       1KiB time=00:00:02.26 bitrate=   2.2kbits/s speed=0.303x elapsed=0:00:07.47    \nframe=   73 fps=9.1 q=44.0 size=       1KiB time=00:00:02.43 bitrate=   2.1kbits/s speed=0.304x elapsed=0:00:07.99    \nframe=   79 fps=9.3 q=46.0 size=       1KiB time=00:00:02.63 bitrate=   1.9kbits/s speed=0.309x elapsed=0:00:08.52    \nframe=   84 fps=9.3 q=47.0 size=       1KiB time=00:00:02.80 bitrate=   1.8kbits/s speed=0.309x elapsed=0:00:09.04    \nframe=   90 fps=9.4 q=47.0 size=       1KiB time=00:00:03.00 bitrate=   1.7kbits/s speed=0.313x elapsed=0:00:09.58    \nframe=   95 fps=9.4 q=46.0 size=       1KiB time=00:00:03.16 bitrate=   1.6kbits/s speed=0.313x elapsed=0:00:10.12    \nframe=  100 fps=9.4 q=48.0 size=       1KiB time=00:00:03.33 bitrate=   1.5kbits/s speed=0.313x elapsed=0:00:10.63    \nframe=  106 fps=9.5 q=49.0 size=       1KiB time=00:00:03.53 bitrate=   1.4kbits/s speed=0.316x elapsed=0:00:11.18    \nframe=  110 fps=9.4 q=49.0 size=       1KiB time=00:00:03.66 bitrate=   1.4kbits/s speed=0.313x elapsed=0:00:11.69    \nframe=  115 fps=9.4 q=49.0 size=       1KiB time=00:00:03.83 bitrate=   1.3kbits/s speed=0.314x elapsed=0:00:12.21    \nframe=  120 fps=9.4 q=49.0 size=       1KiB time=00:00:04.00 bitrate=   1.3kbits/s speed=0.314x elapsed=0:00:12.73    \nframe=  126 fps=9.5 q=47.0 size=       1KiB time=00:00:04.20 bitrate=   1.2kbits/s speed=0.317x elapsed=0:00:13.25    \nframe=  126 fps=9.1 q=47.0 size=       1KiB time=00:00:04.20 bitrate=   1.2kbits/s speed=0.305x elapsed=0:00:13.77    \nframe=  126 fps=8.8 q=47.0 size=       1KiB time=00:00:04.20 bitrate=   1.2kbits/s speed=0.294x elapsed=0:00:14.29    \nframe=  126 fps=8.5 q=47.0 size=       1KiB time=00:00:04.20 bitrate=   1.2kbits/s speed=0.283x elapsed=0:00:14.81    \nframe=  126 fps=8.2 q=47.0 size=       1KiB time=00:00:04.20 bitrate=   1.2kbits/s speed=0.274x elapsed=0:00:15.34    \n[out#0/webm @ 00000225ca4e0bc0] video:1130KiB audio:0KiB subtitle:0KiB other streams:0KiB global headers:0KiB muxing overhead: 0.152157%\nframe=  150 fps=9.6 q=42.0 Lsize=    1132KiB time=00:00:05.00 bitrate=1854.6kbits/s speed=0.321x elapsed=0:00:15.56    \n",
  "seconds": 15.806151151657104,
  "probe_out": {}
}